<?xml version="1.0" encoding="UTF-8" standalone="no"?>
<svg
   width="233.8335"
   height="261.33459"
   viewBox="0 0 233.8335 261.33459"
   fill="none"
   version="1.1"
   id="svg18"
   sodipodi:docname="compose_logo.svg"
   inkscape:version="1.2.2 (b0a8486541, 2022-12-01)"
   xmlns:inkscape="http://www.inkscape.org/namespaces/inkscape"
   xmlns:sodipodi="http://sodipodi.sourceforge.net/DTD/sodipodi-0.dtd"
   xmlns="http://www.w3.org/2000/svg"
   xmlns:svg="http://www.w3.org/2000/svg">
  <defs
     id="defs22" />
  <sodipodi:namedview
     id="namedview20"
     pagecolor="#ffffff"
     bordercolor="#000000"
     borderopacity="0.25"
     inkscape:showpageshadow="2"
     inkscape:pageopacity="0.0"
     inkscape:pagecheckerboard="0"
     inkscape:deskcolor="#d1d1d1"
     showgrid="false"
     inkscape:zoom="1.9340446"
     inkscape:cx="91.77658"
     inkscape:cy="204.75226"
     inkscape:window-width="947"
     inkscape:window-height="1041"
     inkscape:window-x="962"
     inkscape:window-y="5"
     inkscape:window-maximized="1"
     inkscape:current-layer="svg18" />
  <path
     d="m 228.90147,64.013705 c 3.6361,4.474388 4.86763,9.787848 4.86763,15.380736 0.0564,33.726279 0.11106,67.452559 0,101.179029 -0.0564,11.01742 -4.70005,19.46268 -14.37682,25.11169 -29.25637,17.17112 -58.39972,34.39874 -87.59959,51.62441 -4.41942,2.57216 -9.06296,4.36294 -14.3203,3.97126 0,-4.5305 0.0564,-9.11753 0.0564,-13.64803 0.0546,-12.52759 0.11107,-25.11168 0.11107,-37.64122 3.30093,0.0564 6.2102,-1.22957 8.89539,-2.85082 17.4517,-10.23603 34.90537,-20.5266 52.30254,-30.93023 5.76007,-3.41199 8.78236,-8.44524 8.72584,-15.43685 -0.16757,-20.58273 -0.0564,-41.16509 -0.0564,-61.747617 0,-3.187919 -0.8944,-6.040485 -2.73973,-8.613229 14.71003,-8.781197 29.422,-17.618126 44.13397,-26.399129 z"
     fill="#4285f3"
     id="path2"
     style="stroke-width:1.9486" />
  <path
     d="m 228.90147,64.013705 c -14.71197,8.781003 -29.42394,17.618126 -44.07941,26.399129 l -0.0546,-0.223699 c -1.56669,-1.957571 -3.30094,-3.80329 -5.48337,-5.08976 -7.15919,-4.138839 -14.37488,-8.165829 -21.536,-12.248742 -10.01389,-5.64901 -20.1934,-11.130243 -30.03971,-17.058877 -6.88053,-4.138839 -13.59153,-5.816784 -20.92024,-1.398124 -4.47595,2.684593 -8.94995,5.313263 -13.42588,7.942128 C 82.39939,68.823644 71.43458,75.255601 60.47173,81.687755 55.71712,84.4842 50.45784,86.721394 47.71616,92.090778 47.26992,91.923004 46.82175,91.811153 46.43008,91.587453 31.88568,83.47755 17.397798,75.311526 2.8533986,67.145698 4.6441666,62.503535 7.9451056,59.147645 12.083935,56.686751 42.01064,39.0127 71.88276,21.394573 101.86596,3.8323722 c 8.61479,-5.0338331 17.67582,-5.0897582 26.40167,-0.2796247 30.32031,16.9468305 60.58216,34.0057075 90.78946,51.1205085 3.97124,2.349044 7.49627,5.257534 9.84434,9.340449 z"
     fill="#3ddb84"
     id="path4"
     style="stroke-width:1.9486" />
  <path
     d="M 2.7988756,67.201818 C 17.343272,75.367647 31.83115,83.47755 46.3736,91.643378 c 0.39167,0.2237 0.83985,0.33555 1.28803,0.503325 0,0.167775 0,0.279626 0.0546,0.39167 -1.34259,2.013495 -1.62123,4.36254 -1.62123,6.599733 -0.0564,22.428074 -0.0564,44.912254 0,67.341094 0,3.69066 1.73425,6.76751 4.86566,8.61285 5.98611,3.57959 12.13981,6.87856 18.1805,10.29058 11.35648,6.37584 22.65644,12.80818 34.01096,19.18402 4.41943,2.4611 8.67129,5.53794 14.15274,5.37036 0.11106,0 0.27864,0 0.39166,0 -0.0564,12.5276 -0.11301,25.11168 -0.11301,37.64123 0,4.53052 -0.0546,9.11558 -0.0546,13.64609 -4.70004,0.39166 -9.06298,-0.83791 -13.1453,-3.0749 -31.66289,-17.78687 -63.26733,-35.57181 -94.8717774,-53.41519 -6.377785,-3.57959 -9.565705,-9.05907 -9.51114399808,-16.49885 0.0565199981,-36.13105 0.0565199981,-72.31823 0,-108.449279 0,-4.418464 0.55924999808,-8.669153 2.79819899808,-12.584293 z"
     fill="#083042"
     id="path6"
     style="stroke-width:1.9486" />
  <path
     d="m 184.82206,90.412834 c 1.84727,2.572939 2.74168,5.42531 2.74168,8.613424 0,20.582332 -0.11299,41.164882 0.0564,61.747422 0.0545,6.99161 -2.96579,11.96834 -8.7278,15.43685 -17.39717,10.34711 -34.84888,20.63771 -52.30254,30.93023 -2.73975,1.62125 -5.5925,2.90734 -8.89345,2.85082 -0.11301,0 -0.28059,0 -0.39165,0 0.11106,-1.00548 0.27863,-2.01291 0.22407,-3.02035 -0.113,-7.32675 -0.22407,-14.65351 -0.33515,-21.98028 0.22214,-0.27864 0.27865,-0.50273 -0.11301,-0.67031 -0.0564,-0.16758 -0.0564,-0.2806 0,-0.44818 2.29352,-0.11106 4.30837,-0.8379 6.26477,-2.01291 11.46755,-6.7675 22.87858,-13.53501 34.40264,-20.24796 4.30836,-2.51566 6.48884,-6.03874 6.48884,-11.185 -0.11106,-12.92023 -0.0564,-25.84008 0,-38.81604 0,-2.57274 -0.27863,-4.97772 -1.39908,-7.32676 0.50467,-0.39167 0.95092,-0.83907 1.4556,-1.23055 6.54537,-4.754202 13.64804,-8.501372 20.41749,-12.864105 z"
     fill="#3870b2"
     id="path8"
     style="stroke-width:1.9486" />
  <path
     d="m 184.71098,90.189329 c -6.76945,4.306615 -13.92863,8.109903 -20.41749,12.863911 -0.50468,0.39148 -1.00742,0.83908 -1.4556,1.23055 -1.28608,-1.45425 -2.34807,-3.07627 -4.13884,-4.08292 -12.36195,-6.935472 -24.66935,-13.92668 -36.9748,-20.806233 -3.9167,-2.181271 -7.83145,-1.95757 -11.69163,0.335549 C 98.73265,86.38604 87.43268,93.097623 76.07815,99.697352 73.61707,101.1516 71.49113,102.88547 70.14854,105.40229 62.70877,101.03975 55.43656,96.341662 47.7162,92.482448 47.6616,92.370596 47.6616,92.202823 47.6616,92.090974 50.40133,86.777515 55.66063,84.54032 60.41523,81.687755 71.38003,75.199871 82.34289,68.767913 93.3077,62.33576 c 4.474,-2.62867 8.94995,-5.313264 13.42395,-7.942128 7.3287,-4.36254 14.04165,-2.740521 20.92217,1.39832 9.84436,5.928632 20.02584,11.353941 30.03777,17.058876 7.21763,4.082913 14.3768,8.165828 21.53794,12.248742 2.237,1.28647 3.91476,3.13219 5.48142,5.089759 z"
     fill="#37be6e"
     id="path10"
     style="stroke-width:1.9486" />
  <path
     d="m 47.7162,92.538373 c 7.72036,3.859215 14.99257,8.501377 22.43234,12.920037 -0.72683,2.34904 -0.78333,4.75402 -0.72683,7.15898 0,13.42336 0.11106,26.7908 -0.0564,40.21377 -0.0564,4.13885 1.56667,6.76752 5.14627,8.72586 12.02679,6.65448 23.99708,13.47851 35.96931,20.24602 2.06941,1.17501 4.19535,2.01487 6.59993,2.01487 0,0.16757 0,0.27863 0,0.44621 0.0564,0.2241 0.0564,0.44819 0.11301,0.67228 0.11106,7.32675 0.22214,14.65352 0.33515,21.98027 0,1.00549 -0.16758,2.01292 -0.22407,3.02034 -5.42688,0.16758 -9.67679,-2.90926 -14.15273,-5.37036 -11.35453,-6.37584 -22.6545,-12.80818 -34.01097,-19.18402 -6.0972,-3.41202 -12.2509,-6.71099 -18.1805,-10.29058 -3.13141,-1.84534 -4.86567,-4.92219 -4.86567,-8.61285 -0.0564,-22.42884 -0.0564,-44.91283 0,-67.341094 0,-2.237193 0.27865,-4.586238 1.62125,-6.599733 z"
     fill="#05171a"
     id="path12"
     style="stroke-width:1.9486" />
  <path
     d="m 117.08072,183.81596 c -2.40458,0 -4.53052,-0.83791 -6.59993,-2.01292 -11.97223,-6.76751 -23.94252,-13.59154 -35.96931,-20.24602 -3.57959,-1.95834 -5.20278,-4.58701 -5.14627,-8.72586 0.16758,-13.42316 0.0564,-26.7906 0.0564,-40.21377 0,-2.40516 0,-4.81013 0.72683,-7.15917 1.34259,-2.57275 3.46853,-4.30662 5.92961,-5.704944 11.35453,-6.655653 22.6545,-13.311506 33.95447,-19.967165 3.86018,-2.293119 7.77493,-2.51682 11.69163,-0.33555 12.36195,6.935284 24.66935,13.870762 36.9748,20.806049 1.79076,1.00685 2.85276,2.62886 4.13884,4.08291 1.12045,2.29312 1.39908,4.75421 1.39908,7.32695 -0.0564,12.92004 -0.11106,25.83989 0,38.81663 0.0564,5.08975 -2.12592,8.66934 -6.48884,11.18499 -11.46755,6.71101 -22.93509,13.42396 -34.40264,20.24797 -1.9564,1.06199 -3.97125,1.78881 -6.26477,1.8999 z"
     fill="#d5effe"
     id="path14"
     style="stroke-width:1.9486" />
  <path
     d="m 117.19178,184.9364 c -0.0546,-0.22409 -0.0546,-0.44818 -0.11106,-0.67228 0.39167,0.16758 0.39167,0.39168 0.11106,0.67228 z"
     fill="#083042"
     id="path16"
     style="stroke-width:1.9486" />
</svg>
