<svg width="72" height="72" viewBox="0 0 72 72" fill="none" xmlns="http://www.w3.org/2000/svg">
<path d="M54.7369 5.76001C54.1069 5.75439 53.5444 6.15376 53.3475 6.75564L46.1869 28.8H25.8131L18.6525 6.75564C18.4612 6.17626 17.9269 5.77689 17.3137 5.76001C16.7006 5.74877 16.1494 6.12001 15.93 6.69377L7.30125 29.7225C7.29562 29.7225 7.29562 29.7281 7.29 29.7338L2.96999 41.2538C2.74499 41.8613 2.94749 42.5419 3.47625 42.9244L35.145 65.9531L35.1506 65.9644C35.1562 65.9644 35.1562 65.9644 35.1562 65.97C35.1731 65.9813 35.1956 65.9925 35.2125 66.0038C35.235 66.015 35.2519 66.0319 35.2744 66.0431C35.28 66.0431 35.28 66.0488 35.2856 66.0488C35.2856 66.0488 35.2912 66.0544 35.2969 66.0544C35.3025 66.06 35.3081 66.0656 35.3194 66.0656C35.325 66.0713 35.3362 66.0769 35.3419 66.0825C35.37 66.0938 35.4037 66.1106 35.4375 66.1219C35.4375 66.1219 35.4375 66.1219 35.4375 66.1275C35.4712 66.1388 35.505 66.15 35.5331 66.1613C35.5387 66.1613 35.5387 66.1613 35.5444 66.1669C35.5669 66.1725 35.5894 66.1781 35.6175 66.1894C35.6287 66.1894 35.64 66.195 35.6569 66.195C35.6569 66.2006 35.6569 66.2006 35.6569 66.195C35.685 66.2063 35.7131 66.2119 35.7412 66.2175C35.7806 66.2231 35.8144 66.2288 35.8537 66.2344C35.91 66.2344 35.9719 66.24 36.0281 66.24C36.0844 66.2344 36.135 66.2344 36.1856 66.2231C36.2081 66.2231 36.225 66.2231 36.2475 66.2175C36.2475 66.2175 36.2531 66.2175 36.2587 66.2175C36.27 66.2119 36.2756 66.2119 36.2869 66.2119C36.2925 66.2119 36.2981 66.2063 36.3094 66.2063C36.3206 66.2006 36.3375 66.2006 36.3487 66.195C36.3712 66.1894 36.3881 66.1838 36.405 66.1781C36.4162 66.1781 36.4219 66.1781 36.4275 66.1725C36.4331 66.1725 36.4387 66.1725 36.4444 66.1725C36.4669 66.1613 36.495 66.15 36.5175 66.1444C36.5456 66.1331 36.5681 66.1219 36.5906 66.1106C36.5962 66.1106 36.5962 66.1106 36.6019 66.105C36.6075 66.105 36.6131 66.105 36.6187 66.0994C36.63 66.0938 36.6412 66.0881 36.6525 66.0825C36.6862 66.0656 36.7144 66.0488 36.7425 66.0319C36.7537 66.0263 36.7594 66.0206 36.765 66.015C36.7706 66.015 36.7762 66.0094 36.7819 66.0094C36.8044 65.9925 36.8269 65.9813 36.8494 65.9644L36.8606 65.9475L68.5294 42.9244C69.0525 42.5419 69.255 41.8613 69.03 41.2538L64.7212 29.7731C64.7156 29.7619 64.71 29.745 64.71 29.7338L56.07 6.69377C55.8562 6.13689 55.3331 5.76564 54.7369 5.76001ZM17.1844 11.5594L22.7869 28.8H10.7212L17.1844 11.5594ZM54.8156 11.5594L61.2844 28.8H49.2131L54.8156 11.5594ZM11.6156 31.68H23.7206L32.1525 57.6225L11.6156 31.68ZM26.7525 31.68H45.2475L36 60.1425L26.7525 31.68ZM48.2794 31.68H60.3844L39.8475 57.6225L48.2794 31.68ZM9.09 33.1313L28.35 57.4594L6.0525 41.2425L9.09 33.1313ZM62.91 33.1313L65.9475 41.2425L43.65 57.4594L62.91 33.1313Z" fill="white"/>
</svg>
