<svg width="67" height="67" viewBox="0 0 67 67" fill="none" xmlns="http://www.w3.org/2000/svg">
<path d="M33.5 2.67993C16.4944 2.67993 2.67999 16.4944 2.67999 33.4999C2.67999 50.5055 16.4944 64.3199 33.5 64.3199C50.5055 64.3199 64.32 50.5055 64.32 33.4999C64.32 16.4944 50.5055 2.67993 33.5 2.67993ZM33.5 5.35993C49.0572 5.35993 61.64 17.9428 61.64 33.4999C61.64 49.0571 49.0572 61.6399 33.5 61.6399C17.9428 61.6399 5.35999 49.0571 5.35999 33.4999C5.35999 17.9428 17.9428 5.35993 33.5 5.35993ZM21.44 16.0799C19.2357 16.0799 17.42 17.8956 17.42 20.0999C17.42 22.3042 19.2357 24.1199 21.44 24.1199C23.6443 24.1199 25.46 22.3042 25.46 20.0999C25.46 17.8956 23.6443 16.0799 21.44 16.0799ZM21.44 18.7599C22.1959 18.7599 22.78 19.344 22.78 20.0999C22.78 20.8559 22.1959 21.4399 21.44 21.4399C20.6841 21.4399 20.1 20.8559 20.1 20.0999C20.1 19.344 20.6841 18.7599 21.44 18.7599ZM18.76 25.4599C18.4046 25.46 18.0638 25.6012 17.8125 25.8524C17.5612 26.1037 17.42 26.4446 17.42 26.7999V46.8999C17.42 47.2553 17.5612 47.5961 17.8125 47.8474C18.0638 48.0987 18.4046 48.2399 18.76 48.2399H24.12C24.4754 48.2399 24.8162 48.0987 25.0675 47.8474C25.3188 47.5961 25.46 47.2553 25.46 46.8999V26.7999C25.46 26.4446 25.3188 26.1037 25.0675 25.8524C24.8162 25.6012 24.4754 25.46 24.12 25.4599H18.76ZM29.48 25.4599C29.1246 25.46 28.7838 25.6012 28.5325 25.8524C28.2812 26.1037 28.14 26.4446 28.14 26.7999V46.8999C28.14 47.2553 28.2812 47.5961 28.5325 47.8474C28.7838 48.0987 29.1246 48.2399 29.48 48.2399H34.84C35.1954 48.2399 35.5362 48.0987 35.7875 47.8474C36.0388 47.5961 36.18 47.2553 36.18 46.8999V36.8499C36.18 35.0013 37.6814 33.4999 39.53 33.4999C41.3786 33.4999 42.88 35.0013 42.88 36.8499V40.1999V46.8999C42.88 47.2553 43.0212 47.5961 43.2725 47.8474C43.5238 48.0987 43.8646 48.2399 44.22 48.2399H49.58C49.9354 48.2399 50.2762 48.0987 50.5275 47.8474C50.7788 47.5961 50.92 47.2553 50.92 46.8999V35.5099C50.92 29.9752 46.4047 25.4599 40.87 25.4599C39.1461 25.4599 37.6001 26.0176 36.18 26.7868C36.1765 26.4337 36.0338 26.0963 35.7829 25.8478C35.532 25.5993 35.1931 25.4599 34.84 25.4599H29.48ZM20.1 28.1399H22.78V45.5599H20.1V28.1399ZM30.82 28.1399H33.5V29.2339C33.5 29.4967 33.5773 29.7537 33.7223 29.973C33.8673 30.1922 34.0735 30.3639 34.3153 30.4668C34.5571 30.5698 34.8239 30.5993 35.0824 30.5518C35.3409 30.5043 35.5797 30.3818 35.7691 30.1997C37.0968 28.9242 38.8823 28.1399 40.87 28.1399C44.9565 28.1399 48.24 31.4235 48.24 35.5099V45.5599H45.56V40.1999V36.8499C45.56 33.5395 42.8404 30.8199 39.53 30.8199C36.2196 30.8199 33.5 33.5395 33.5 36.8499V45.5599H30.82V28.1399Z" fill="white"/>
</svg>
