<svg width="75" height="75" viewBox="0 0 75 75" fill="none" xmlns="http://www.w3.org/2000/svg">
<path d="M10.9375 62.5C9.6875 62.5 8.59375 62.0312 7.65625 61.0938C6.71875 60.1562 6.25 59.0625 6.25 57.8125V17.1875C6.25 15.9375 6.71875 14.8438 7.65625 13.9062C8.59375 12.9688 9.6875 12.5 10.9375 12.5H64.0625C65.3125 12.5 66.4063 12.9688 67.3438 13.9062C68.2813 14.8438 68.75 15.9375 68.75 17.1875V57.8125C68.75 59.0625 68.2813 60.1562 67.3438 61.0938C66.4063 62.0312 65.3125 62.5 64.0625 62.5H10.9375ZM64.0625 21.4844L38.75 38.0469C38.5417 38.151 38.3464 38.2422 38.1641 38.3203C37.9818 38.3984 37.7604 38.4375 37.5 38.4375C37.2396 38.4375 37.0182 38.3984 36.8359 38.3203C36.6536 38.2422 36.4583 38.151 36.25 38.0469L10.9375 21.4844V57.8125H64.0625V21.4844ZM37.5 34.2188L63.75 17.1875H11.3281L37.5 34.2188ZM10.9375 22.0312V18.9596V19.0168V17.1875V18.9844V18.9131V22.0312Z" fill="white"/>
</svg>
